<svg version="1.1" xmlns="http://www.w3.org/2000/svg" width="14" height="14" viewBox="0 0 14 14">
    <path fill="#e55" d="M7 0.583c-3.558 0-6.417 2.858-6.417 6.417s2.858 6.417 6.417 6.417 6.417-2.858 6.417-6.417-2.858-6.417-6.417-6.417zM7 12.25c-2.917 0-5.25-2.333-5.25-5.25s2.333-5.25 5.25-5.25c2.917 0 5.25 2.333 5.25 5.25s-2.333 5.25-5.25 5.25z"></path>
    <path fill="#e55" d="M9.567 7.642l-1.983-0.992v-3.15c0-0.35-0.233-0.583-0.583-0.583s-0.583 0.233-0.583 0.583v3.5c0 0.233 0.117 0.408 0.35 0.525l2.333 1.167c0.058 0.058 0.117 0.058 0.233 0.058 0.233 0 0.408-0.117 0.525-0.35s0-0.583-0.292-0.758z"></path>
</svg>
