<svg version="1.1" xmlns="http://www.w3.org/2000/svg" width="32" height="32" viewBox="0 0 32 32">
<path fill="#fff" d="M4.88 0.688c0 0.056 5.496 19.032 5.6 19.312 0.040 0.112 0.072-3.912 0.072-9.584l0.008-9.776h-2.84c-1.56 0-2.84 0.024-2.84 0.048z"></path>
<path fill="#fff" d="M4.648 17.52l-0.008 12.92 5.84-5.84-2.88-9.92c-1.584-5.456-2.896-9.96-2.912-10-0.024-0.048-0.040 5.736-0.040 12.84z"></path>
<path fill="#fff" d="M14.408 25.472c0.016 0.016 2.912 1.264 6.432 2.768s6.424 2.752 6.464 2.776c0.032 0.016 0.056-1.232 0.056-2.768v-2.808h-6.496c-3.568 0-6.472 0.016-6.456 0.032z"></path>
<path fill="#fff" d="M8.44 28.48l-2.88 2.88h9.632c5.296 0 9.616-0.016 9.6-0.032-0.056-0.056-13.336-5.728-13.408-5.728-0.032 0-1.36 1.296-2.944 2.88z"></path>
</svg>
