<?xml version="1.0" standalone="no"?>
<!DOCTYPE svg PUBLIC "-//W3C//DTD SVG 20010904//EN"
        "http://www.w3.org/TR/2001/REC-SVG-20010904/DTD/svg10.dtd">
<svg version="1.0" xmlns="http://www.w3.org/2000/svg"
     width="28.800000pt" height="28.800000pt" viewBox="0 0 28.800000 28.800000"
     preserveAspectRatio="xMidYMid meet">
 <metadata>
  Created by potrace 1.13, written by Peter Selinger 2001-2015
 </metadata>
 <g transform="translate(0.000000,28.800000) scale(0.080000,-0.080000)"
    fill="#000000" stroke="none">
  <path d="M65 321 c3 -16 17 -62 30 -103 l23 -73 1 103 1 102 -31 0 c-29 0 -30
-2 -24 -29z"/>
  <path d="M50 153 l0 -137 34 33 34 33 -19 67 c-11 36 -24 83 -30 104 -5 20
-12 37 -14 37 -3 0 -5 -62 -5 -137z"/>
  <path d="M95 40 l-29 -30 100 1 99 1 -60 28 c-33 16 -65 29 -71 29 -5 1 -23
-12 -39 -29z"/>
  <path d="M220 48 c92 -41 90 -41 90 -8 l0 30 -67 -1 -68 0 45 -21z"/>
 </g>
</svg>