<svg version="1.1" xmlns="http://www.w3.org/2000/svg" width="14" height="14" viewBox="0 0 14 14">
<path d="M11.2 7c-0.42 0-0.7 0.28-0.7 0.7v4.2c0 0.42-0.28 0.7-0.7 0.7h-7.7c-0.42 0-0.7-0.28-0.7-0.7v-7.7c0-0.42 0.28-0.7 0.7-0.7h4.2c0.42 0 0.7-0.28 0.7-0.7s-0.28-0.7-0.7-0.7h-4.2c-1.19 0-2.1 0.91-2.1 2.1v7.7c0 1.19 0.91 2.1 2.1 2.1h7.7c1.19 0 2.1-0.91 2.1-2.1v-4.2c0-0.42-0.28-0.7-0.7-0.7z"></path>
<path d="M13.93 0.42c-0.070-0.14-0.21-0.28-0.35-0.35-0.070-0.070-0.21-0.070-0.28-0.070h-4.2c-0.42 0-0.7 0.28-0.7 0.7s0.28 0.7 0.7 0.7h2.52l-6.51 6.51c-0.28 0.28-0.28 0.7 0 0.98 0.14 0.14 0.28 0.21 0.49 0.21s0.35-0.070 0.49-0.21l6.51-6.51v2.52c0 0.42 0.28 0.7 0.7 0.7s0.7-0.28 0.7-0.7v-4.2c0-0.070 0-0.21-0.070-0.28z"></path>
</svg>
